# xmcd
#
# Track frame offsets:
#	150
#	15930
#	30180
#	45425
#	57937
#	73105
#	88652
#	102060
#	116235
#	131647
#	147862
#	160210
#	172830
#	188657
#	206572
#	225045
#	241915
#	242345
#	242835
#	243312
#	243762
#	244312
#	244737
#	245280
#	245847
#	246275
#
# Disc length: 3289
#
# Revision: 1
# Processed by: cddbd v1.5.1PL0 Copyright (c) Steve Scherf et al.
# Submitted via: VisiTrax 2.9.5.180 - For more info visit www.synapsa.com
# Normalized: r0:DSETVAR1
#
DISCID=4a0cd71a
DTITLE=Various Artist - CDX 110 May 1995
DYEAR=1995
DGENRE=
TTITLE0=Reba McEntire - And still
TTITLE1=Bellamy Brothers - Big hair
TTITLE2=Steve Kolander - Can't undo what's been done
TTITLE3=Chris LeDoux - Dallas das and Fort Worth nights
TTITLE4=Mark Chesnutt - Down in Tennessee
TTITLE5=Danny Tate - Dreamin'
TTITLE6=Marty Stuart - If I ain't got you
TTITLE7=Shane Sutton - I've got your number
TTITLE8=Ty Herndon - I want my goodbye back
TTITLE9=Jimmy Collins - Rodeo rock
TTITLE10=Ty England - Should've asked her faster
TTITLE11=Mark Collie - Three words, two hearts, one night
TTITLE12=Perfect Stranger - You have the right to remain silent
TTITLE13=Brooks and Dunn - ou're gonna miss me when I'm gone
TTITLE14=Crystal Gayle - Someday
TTITLE15=Tana Tucker/Ricky Skaggs/Lee Greenwood/Deborah Allen/Bryan Austin/Deana Carter/James Rogers/Joy Lynn White/Ricky Lynn Gregg - Save the eagle
TTITLE16=Woody Lee - Intro
TTITLE17=Woody Lee - Intro
TTITLE18=Woody Lee - Intro
TTITLE19=Woody Lee - Intro
TTITLE20=Woody Lee - Intro
TTITLE21=Woody Lee - Intro
TTITLE22=Woody Lee - Intro
TTITLE23=Woody Lee - Intro
TTITLE24=Woody Lee - Intro
TTITLE25=Woody Lee - Intro
EXTD=
EXTT0=
EXTT1=
EXTT2=
EXTT3=
EXTT4=
EXTT5=
EXTT6=
EXTT7=
EXTT8=
EXTT9=
EXTT10=
EXTT11=
EXTT12=
EXTT13=
EXTT14=
EXTT15=
EXTT16=
EXTT17=
EXTT18=
EXTT19=
EXTT20=
EXTT21=
EXTT22=
EXTT23=
EXTT24=
EXTT25=
PLAYORDER=
